<svg width="23" height="23" viewBox="0 0 23 23" fill="none" xmlns="http://www.w3.org/2000/svg">
<path d="M15.4375 17.3333V18.5C15.4375 19.4283 15.0227 20.3185 14.2842 20.9749C13.5458 21.6312 12.5443 22 11.5 22C10.4557 22 9.45419 21.6312 8.71577 20.9749C7.97734 20.3185 7.5625 19.4283 7.5625 18.5V17.3333M15.4375 17.3333H7.5625M15.4375 17.3333H20.1494C20.6521 17.3333 20.9041 17.3333 21.1075 17.2727C21.2989 17.2151 21.4727 17.119 21.6154 16.9919C21.7581 16.8648 21.866 16.7102 21.9304 16.54C22 16.358 22 16.134 22 15.6837C22 15.4865 22 15.3885 21.9816 15.294C21.9492 15.1173 21.8715 14.9497 21.7546 14.804C21.6916 14.7258 21.6128 14.6558 21.4566 14.517L20.9447 14.062C20.8631 13.9894 20.7984 13.9031 20.7542 13.8082C20.7101 13.7134 20.6874 13.6117 20.6875 13.509V9.16667C20.6875 8.0942 20.4499 7.03224 19.9881 6.04142C19.5264 5.05059 18.8497 4.15031 17.9965 3.39196C17.1434 2.63362 16.1306 2.03206 15.0159 1.62165C13.9012 1.21124 12.7065 1 11.5 1C10.2935 1 9.09877 1.21124 7.9841 1.62165C6.86942 2.03206 5.85659 2.63362 5.00346 3.39196C4.15032 4.15031 3.47357 5.05059 3.01186 6.04142C2.55014 7.03224 2.3125 8.0942 2.3125 9.16667V13.509C2.31258 13.6117 2.28991 13.7134 2.24577 13.8082C2.20163 13.9031 2.13689 13.9894 2.05525 14.062L1.54338 14.517C1.38588 14.657 1.30844 14.7258 1.24675 14.8028C1.12866 14.9487 1.05006 15.1167 1.01706 15.294C1 15.3873 1 15.4865 1 15.6837C1 16.134 1 16.358 1.06825 16.54C1.133 16.7104 1.24121 16.8652 1.38442 16.9923C1.52764 17.1194 1.70197 17.2154 1.89381 17.2727C2.09725 17.3333 2.34794 17.3333 2.85062 17.3333H7.5625" stroke="black" stroke-width="2" stroke-linecap="round" stroke-linejoin="round"/>
</svg>
